<?xml version="1.0" encoding="UTF-8" standalone="no"?>
<svg
   xmlns:dc="http://purl.org/dc/elements/1.1/"
   xmlns:cc="http://creativecommons.org/ns#"
   xmlns:rdf="http://www.w3.org/1999/02/22-rdf-syntax-ns#"
   xmlns:svg="http://www.w3.org/2000/svg"
   xmlns="http://www.w3.org/2000/svg"
   xmlns:sodipodi="http://sodipodi.sourceforge.net/DTD/sodipodi-0.dtd"
   xmlns:inkscape="http://www.inkscape.org/namespaces/inkscape"
   viewBox="0 0 64 64"
   version="1.1"
   id="svg10"
   sodipodi:docname="module-queue.svg"
   inkscape:version="0.92.2 5c3e80d, 2017-08-06">
  <metadata
     id="metadata16">
    <rdf:RDF>
      <cc:Work
         rdf:about="">
        <dc:format>image/svg+xml</dc:format>
        <dc:type
           rdf:resource="http://purl.org/dc/dcmitype/StillImage" />
      </cc:Work>
    </rdf:RDF>
  </metadata>
  <defs
     id="defs14" />
  <sodipodi:namedview
     pagecolor="#ffffff"
     bordercolor="#666666"
     borderopacity="1"
     objecttolerance="10"
     gridtolerance="10"
     guidetolerance="10"
     inkscape:pageopacity="0"
     inkscape:pageshadow="2"
     inkscape:window-width="2144"
     inkscape:window-height="1403"
     id="namedview12"
     showgrid="false"
     inkscape:zoom="3.6875"
     inkscape:cx="-5.6949153"
     inkscape:cy="32"
     inkscape:window-x="0"
     inkscape:window-y="22"
     inkscape:window-maximized="0"
     inkscape:current-layer="svg10" />
  <title
     id="title2">module-info</title>
  <g
     fill="none"
     fill-rule="evenodd"
     id="g8"
     style="fill:#abc837">
    <path
       d="M0 0h64v64H0z"
       fill="#6DAAE0"
       id="path4"
       style="fill:#abc837" />
  </g>
  <g
     id="g91"
     transform="matrix(0.48987816,0,0,0.48987816,8.3186815,8.3201416)"
     style="fill:#ffffff;stroke-width:2.0413239">
    <path
       id="path87"
       d="m 87.813,44.023 c -0.101,-0.681 -0.606,-1.228 -1.286,-1.396 l -3.94,-0.95 c -2.167,-0.519 -3.732,-1.708 -4.408,-3.351 -0.686,-1.64 -0.419,-3.589 0.748,-5.488 l 2.113,-3.455 c 0.357,-0.59 0.324,-1.333 -0.08,-1.889 -2.359,-3.248 -5.206,-6.093 -8.455,-8.455 -0.294,-0.213 -0.641,-0.328 -1.007,-0.328 -0.313,0 -0.616,0.085 -0.883,0.247 l -3.454,2.114 c -1.189,0.727 -2.435,1.111 -3.603,1.111 -2.521,0 -4.531,-1.828 -5.243,-4.769 l -0.941,-3.953 c -0.17,-0.671 -0.719,-1.171 -1.396,-1.274 -1.961,-0.307 -3.97,-0.464 -5.976,-0.464 -2.004,0 -4.015,0.157 -5.974,0.464 -0.674,0.102 -1.232,0.616 -1.389,1.279 l -0.953,3.946 c -0.713,2.942 -2.719,4.77 -5.241,4.77 -1.169,0 -2.414,-0.384 -3.603,-1.11 l -3.457,-2.116 c -0.265,-0.16 -0.569,-0.246 -0.879,-0.246 -0.368,0 -0.715,0.114 -1.006,0.328 -3.247,2.358 -6.089,5.202 -8.455,8.453 -0.407,0.557 -0.442,1.298 -0.084,1.892 l 2.12,3.454 c 1.16,1.893 1.427,3.84 0.746,5.49 -0.68,1.643 -2.243,2.831 -4.408,3.349 l -3.947,0.951 c -0.673,0.167 -1.177,0.715 -1.279,1.395 -0.31,2.004 -0.466,4.015 -0.466,5.972 0,1.966 0.156,3.979 0.466,5.977 0.101,0.676 0.618,1.234 1.281,1.391 l 3.945,0.953 c 2.163,0.521 3.728,1.713 4.408,3.352 0.68,1.649 0.413,3.601 -0.748,5.496 l -2.118,3.452 c -0.357,0.592 -0.322,1.333 0.082,1.888 2.368,3.253 5.212,6.1 8.454,8.453 0.292,0.213 0.639,0.328 1,0.328 0.316,0 0.625,-0.09 0.891,-0.255 l 3.455,-2.106 c 1.199,-0.731 2.446,-1.119 3.603,-1.119 2.52,0 4.528,1.829 5.241,4.778 l 0.953,3.943 c 0.156,0.666 0.698,1.171 1.389,1.286 1.99,0.308 4,0.464 5.979,0.464 1.972,0 3.979,-0.156 5.977,-0.464 0.682,-0.115 1.228,-0.618 1.39,-1.286 l 0.943,-3.943 c 0.715,-2.949 2.723,-4.778 5.243,-4.778 1.154,0 2.402,0.388 3.603,1.119 l 3.45,2.104 c 0.269,0.167 0.579,0.257 0.896,0.257 0.361,0 0.708,-0.115 0.996,-0.328 3.249,-2.358 6.093,-5.202 8.455,-8.453 0.406,-0.557 0.439,-1.299 0.082,-1.89 l -2.113,-3.45 c -1.169,-1.902 -1.434,-3.854 -0.748,-5.496 0.674,-1.639 2.239,-2.828 4.405,-3.352 l 3.943,-0.951 c 0.666,-0.158 1.186,-0.717 1.282,-1.391 0.31,-1.988 0.466,-3.999 0.466,-5.979 -0.001,-1.954 -0.157,-3.962 -0.465,-5.971 z M 75.028,60.364 c -1.103,2.67 -0.754,5.713 0.988,8.567 l 1.516,2.469 c -1.774,2.276 -3.834,4.334 -6.129,6.12 l -2.466,-1.509 c -1.733,-1.056 -3.593,-1.612 -5.379,-1.612 -4.112,0 -7.468,2.899 -8.55,7.387 L 54.33,84.6 c -1.428,0.174 -2.88,0.265 -4.33,0.265 -1.448,0 -2.902,-0.091 -4.329,-0.265 l -0.678,-2.814 c -1.083,-4.487 -4.44,-7.387 -8.55,-7.387 -1.787,0 -3.646,0.557 -5.379,1.614 L 28.597,77.52 C 26.291,75.721 24.235,73.664 22.475,71.4 l 1.501,-2.469 c 1.746,-2.851 2.099,-5.894 0.994,-8.57 -1.107,-2.672 -3.508,-4.573 -6.759,-5.357 l -2.815,-0.676 c -0.175,-1.401 -0.263,-2.858 -0.263,-4.335 0,-1.478 0.088,-2.932 0.263,-4.327 l 2.815,-0.678 c 3.253,-0.783 5.652,-2.686 6.759,-5.358 1.107,-2.679 0.754,-5.721 -0.994,-8.565 l -1.503,-2.469 c 1.774,-2.282 3.832,-4.342 6.124,-6.128 l 2.467,1.506 c 1.725,1.061 3.583,1.623 5.376,1.623 4.11,0 7.466,-2.901 8.55,-7.387 l 0.68,-2.815 c 1.427,-0.176 2.881,-0.266 4.329,-0.266 1.448,0 2.902,0.089 4.33,0.266 l 0.678,2.815 c 1.082,4.486 4.444,7.387 8.558,7.387 1.789,0 3.646,-0.562 5.369,-1.622 L 71.4,22.468 c 2.284,1.779 4.346,3.838 6.131,6.128 l -1.518,2.468 c -1.742,2.848 -2.091,5.891 -0.986,8.566 1.104,2.672 3.504,4.575 6.764,5.358 l 2.813,0.678 c 0.181,1.471 0.271,2.926 0.271,4.327 0,1.4 -0.09,2.858 -0.272,4.335 l -2.812,0.676 c -3.257,0.784 -5.655,2.687 -6.763,5.36 z"
       inkscape:connector-curvature="0"
       style="fill:#ffffff;stroke-width:2.0413239" />
    <path
       id="path89"
       d="m 50.006,36.274 c -7.568,0 -13.726,6.155 -13.726,13.719 0,7.569 6.157,13.729 13.726,13.729 7.565,0 13.721,-6.159 13.721,-13.729 0,-7.564 -6.156,-13.719 -13.721,-13.719 z m 0,23.568 c -5.43,0 -9.848,-4.417 -9.848,-9.849 0,-5.432 4.418,-9.85 9.848,-9.85 5.43,0 9.848,4.417 9.848,9.85 0,5.432 -4.418,9.849 -9.848,9.849 z"
       inkscape:connector-curvature="0"
       style="fill:#ffffff;stroke-width:2.0413239" />
  </g>
</svg>
